<?xml version="1.0" encoding="UTF-8"?><svg xmlns="http://www.w3.org/2000/svg" xmlns:xlink="http://www.w3.org/1999/xlink" fill-opacity="1" color-rendering="auto" color-interpolation="auto" text-rendering="auto" stroke="black" stroke-linecap="square" width="1191" stroke-miterlimit="10" shape-rendering="auto" stroke-opacity="1" fill="black" stroke-dasharray="none" font-weight="normal" stroke-width="1" height="678" font-family="'Dialog'" font-style="normal" stroke-linejoin="miter" font-size="12px" stroke-dashoffset="0" image-rendering="auto">
  <!--Generated by ySVG 2.5-->
  <defs id="genericDefs"/>
  <g>
    <defs id="defs1">
      <clipPath clipPathUnits="userSpaceOnUse" id="clipPath1">
        <path d="M0 0 L1191 0 L1191 678 L0 678 L0 0 Z"/>
      </clipPath>
      <clipPath clipPathUnits="userSpaceOnUse" id="clipPath2">
        <path d="M203 158 L1394 158 L1394 836 L203 836 L203 158 Z"/>
      </clipPath>
    </defs>
    <g fill="white" text-rendering="geometricPrecision" shape-rendering="geometricPrecision" transform="translate(-203,-158)" stroke="white">
      <rect x="203" width="1191" height="678" y="158" clip-path="url(#clipPath2)" stroke="none"/>
    </g>
    <g fill="rgb(255,204,0)" text-rendering="geometricPrecision" shape-rendering="geometricPrecision" transform="matrix(1,0,0,1,-203,-158)" stroke="rgb(255,204,0)">
      <circle r="25" clip-path="url(#clipPath2)" cx="243" cy="432" stroke="none"/>
    </g>
    <g text-rendering="geometricPrecision" stroke-miterlimit="1.45" shape-rendering="geometricPrecision" transform="matrix(1,0,0,1,-203,-158)" stroke-linecap="butt">
      <circle fill="none" r="25" clip-path="url(#clipPath2)" cx="243" cy="432"/>
      <text x="236.8257" font-size="18px" y="438.2314" clip-path="url(#clipPath2)" font-family="sans-serif" stroke="none" xml:space="preserve">B</text>
    </g>
    <g fill="rgb(255,204,0)" text-rendering="geometricPrecision" shape-rendering="geometricPrecision" transform="matrix(1,0,0,1,-203,-158)" stroke="rgb(255,204,0)">
      <circle r="25" clip-path="url(#clipPath2)" cx="243" cy="332" stroke="none"/>
    </g>
    <g text-rendering="geometricPrecision" stroke-miterlimit="1.45" shape-rendering="geometricPrecision" transform="matrix(1,0,0,1,-203,-158)" stroke-linecap="butt">
      <circle fill="none" r="25" clip-path="url(#clipPath2)" cx="243" cy="332"/>
      <text x="236.8433" font-size="18px" y="338.2314" clip-path="url(#clipPath2)" font-family="sans-serif" stroke="none" xml:space="preserve">A</text>
    </g>
    <g fill="rgb(255,204,0)" text-rendering="geometricPrecision" shape-rendering="geometricPrecision" transform="matrix(1,0,0,1,-203,-158)" stroke="rgb(255,204,0)">
      <circle r="25" clip-path="url(#clipPath2)" cx="243" cy="532" stroke="none"/>
    </g>
    <g text-rendering="geometricPrecision" stroke-miterlimit="1.45" shape-rendering="geometricPrecision" transform="matrix(1,0,0,1,-203,-158)" stroke-linecap="butt">
      <circle fill="none" r="25" clip-path="url(#clipPath2)" cx="243" cy="532"/>
      <text x="236.7158" font-size="18px" y="538.2314" clip-path="url(#clipPath2)" font-family="sans-serif" stroke="none" xml:space="preserve">C</text>
    </g>
    <g fill="rgb(255,204,0)" text-rendering="geometricPrecision" shape-rendering="geometricPrecision" transform="matrix(1,0,0,1,-203,-158)" stroke="rgb(255,204,0)">
      <circle r="25" clip-path="url(#clipPath2)" cx="401" cy="332" stroke="none"/>
    </g>
    <g text-rendering="geometricPrecision" stroke-miterlimit="1.45" shape-rendering="geometricPrecision" transform="matrix(1,0,0,1,-203,-158)" stroke-linecap="butt">
      <circle fill="none" r="25" clip-path="url(#clipPath2)" cx="401" cy="332"/>
      <text x="394.8345" font-size="18px" y="338.2314" clip-path="url(#clipPath2)" font-family="sans-serif" stroke="none" xml:space="preserve">X</text>
    </g>
    <g fill="rgb(255,204,0)" text-rendering="geometricPrecision" shape-rendering="geometricPrecision" transform="matrix(1,0,0,1,-203,-158)" stroke="rgb(255,204,0)">
      <circle r="25" clip-path="url(#clipPath2)" cx="401" cy="432" stroke="none"/>
    </g>
    <g text-rendering="geometricPrecision" stroke-miterlimit="1.45" shape-rendering="geometricPrecision" transform="matrix(1,0,0,1,-203,-158)" stroke-linecap="butt">
      <circle fill="none" r="25" clip-path="url(#clipPath2)" cx="401" cy="432"/>
      <text x="395.5024" font-size="18px" y="438.2314" clip-path="url(#clipPath2)" font-family="sans-serif" stroke="none" xml:space="preserve">Y</text>
    </g>
    <g fill="rgb(255,204,0)" text-rendering="geometricPrecision" shape-rendering="geometricPrecision" transform="matrix(1,0,0,1,-203,-158)" stroke="rgb(255,204,0)">
      <circle r="25" clip-path="url(#clipPath2)" cx="401" cy="532" stroke="none"/>
    </g>
    <g text-rendering="geometricPrecision" stroke-miterlimit="1.45" shape-rendering="geometricPrecision" transform="matrix(1,0,0,1,-203,-158)" stroke-linecap="butt">
      <circle fill="none" r="25" clip-path="url(#clipPath2)" cx="401" cy="532"/>
      <text x="394.8345" font-size="18px" y="538.2314" clip-path="url(#clipPath2)" font-family="sans-serif" stroke="none" xml:space="preserve">Z</text>
    </g>
    <g fill="rgb(255,204,0)" text-rendering="geometricPrecision" shape-rendering="geometricPrecision" transform="matrix(1,0,0,1,-203,-158)" stroke="rgb(255,204,0)">
      <circle r="25" clip-path="url(#clipPath2)" cx="993" cy="307" stroke="none"/>
    </g>
    <g text-rendering="geometricPrecision" stroke-miterlimit="1.45" shape-rendering="geometricPrecision" transform="matrix(1,0,0,1,-203,-158)" stroke-linecap="butt">
      <circle fill="none" r="25" clip-path="url(#clipPath2)" cx="993" cy="307"/>
      <text x="986.8433" font-size="18px" y="313.2314" clip-path="url(#clipPath2)" font-family="sans-serif" stroke="none" xml:space="preserve">A</text>
    </g>
    <g fill="rgb(255,204,0)" text-rendering="geometricPrecision" shape-rendering="geometricPrecision" transform="matrix(1,0,0,1,-203,-158)" stroke="rgb(255,204,0)">
      <circle r="25" clip-path="url(#clipPath2)" cx="993" cy="406.75" stroke="none"/>
    </g>
    <g text-rendering="geometricPrecision" stroke-miterlimit="1.45" shape-rendering="geometricPrecision" transform="matrix(1,0,0,1,-203,-158)" stroke-linecap="butt">
      <circle fill="none" r="25" clip-path="url(#clipPath2)" cx="993" cy="406.75"/>
      <text x="986.8257" font-size="18px" y="412.9814" clip-path="url(#clipPath2)" font-family="sans-serif" stroke="none" xml:space="preserve">B</text>
    </g>
    <g fill="rgb(255,204,0)" text-rendering="geometricPrecision" shape-rendering="geometricPrecision" transform="matrix(1,0,0,1,-203,-158)" stroke="rgb(255,204,0)">
      <circle r="25" clip-path="url(#clipPath2)" cx="993" cy="506.5" stroke="none"/>
    </g>
    <g text-rendering="geometricPrecision" stroke-miterlimit="1.45" shape-rendering="geometricPrecision" transform="matrix(1,0,0,1,-203,-158)" stroke-linecap="butt">
      <circle fill="none" r="25" clip-path="url(#clipPath2)" cx="993" cy="506.5"/>
      <text x="987.5024" font-size="18px" y="512.7314" clip-path="url(#clipPath2)" font-family="sans-serif" stroke="none" xml:space="preserve">Y</text>
    </g>
    <g fill="rgb(255,204,0)" text-rendering="geometricPrecision" shape-rendering="geometricPrecision" transform="matrix(1,0,0,1,-203,-158)" stroke="rgb(255,204,0)">
      <circle r="25" clip-path="url(#clipPath2)" cx="993" cy="606.25" stroke="none"/>
    </g>
    <g text-rendering="geometricPrecision" stroke-miterlimit="1.45" shape-rendering="geometricPrecision" transform="matrix(1,0,0,1,-203,-158)" stroke-linecap="butt">
      <circle fill="none" r="25" clip-path="url(#clipPath2)" cx="993" cy="606.25"/>
      <text x="986.8345" font-size="18px" y="612.4814" clip-path="url(#clipPath2)" font-family="sans-serif" stroke="none" xml:space="preserve">Z</text>
    </g>
    <g fill="rgb(255,204,0)" text-rendering="geometricPrecision" shape-rendering="geometricPrecision" transform="matrix(1,0,0,1,-203,-158)" stroke="rgb(255,204,0)">
      <circle r="25" clip-path="url(#clipPath2)" cx="548" cy="432" stroke="none"/>
    </g>
    <g text-rendering="geometricPrecision" stroke-miterlimit="1.45" shape-rendering="geometricPrecision" transform="matrix(1,0,0,1,-203,-158)" stroke-linecap="butt">
      <circle fill="none" r="25" clip-path="url(#clipPath2)" cx="548" cy="432"/>
      <text x="541.8257" font-size="18px" y="438.2314" clip-path="url(#clipPath2)" font-family="sans-serif" stroke="none" xml:space="preserve">B</text>
    </g>
    <g fill="rgb(255,204,0)" text-rendering="geometricPrecision" shape-rendering="geometricPrecision" transform="matrix(1,0,0,1,-203,-158)" stroke="rgb(255,204,0)">
      <circle r="25" clip-path="url(#clipPath2)" cx="548" cy="332" stroke="none"/>
    </g>
    <g text-rendering="geometricPrecision" stroke-miterlimit="1.45" shape-rendering="geometricPrecision" transform="matrix(1,0,0,1,-203,-158)" stroke-linecap="butt">
      <circle fill="none" r="25" clip-path="url(#clipPath2)" cx="548" cy="332"/>
      <text x="541.8433" font-size="18px" y="338.2314" clip-path="url(#clipPath2)" font-family="sans-serif" stroke="none" xml:space="preserve">A</text>
    </g>
    <g fill="rgb(255,204,0)" text-rendering="geometricPrecision" shape-rendering="geometricPrecision" transform="matrix(1,0,0,1,-203,-158)" stroke="rgb(255,204,0)">
      <circle r="25" clip-path="url(#clipPath2)" cx="548" cy="532" stroke="none"/>
    </g>
    <g text-rendering="geometricPrecision" stroke-miterlimit="1.45" shape-rendering="geometricPrecision" transform="matrix(1,0,0,1,-203,-158)" stroke-linecap="butt">
      <circle fill="none" r="25" clip-path="url(#clipPath2)" cx="548" cy="532"/>
      <text x="541.7158" font-size="18px" y="538.2314" clip-path="url(#clipPath2)" font-family="sans-serif" stroke="none" xml:space="preserve">C</text>
    </g>
    <g fill="rgb(255,204,0)" text-rendering="geometricPrecision" shape-rendering="geometricPrecision" transform="matrix(1,0,0,1,-203,-158)" stroke="rgb(255,204,0)">
      <circle r="25" clip-path="url(#clipPath2)" cx="706" cy="332" stroke="none"/>
    </g>
    <g text-rendering="geometricPrecision" stroke-miterlimit="1.45" shape-rendering="geometricPrecision" transform="matrix(1,0,0,1,-203,-158)" stroke-linecap="butt">
      <circle fill="none" r="25" clip-path="url(#clipPath2)" cx="706" cy="332"/>
      <text x="699.8345" font-size="18px" y="338.2314" clip-path="url(#clipPath2)" font-family="sans-serif" stroke="none" xml:space="preserve">X</text>
    </g>
    <g fill="rgb(255,204,0)" text-rendering="geometricPrecision" shape-rendering="geometricPrecision" transform="matrix(1,0,0,1,-203,-158)" stroke="rgb(255,204,0)">
      <circle r="25" clip-path="url(#clipPath2)" cx="706" cy="432" stroke="none"/>
    </g>
    <g text-rendering="geometricPrecision" stroke-miterlimit="1.45" shape-rendering="geometricPrecision" transform="matrix(1,0,0,1,-203,-158)" stroke-linecap="butt">
      <circle fill="none" r="25" clip-path="url(#clipPath2)" cx="706" cy="432"/>
      <text x="700.5024" font-size="18px" y="438.2314" clip-path="url(#clipPath2)" font-family="sans-serif" stroke="none" xml:space="preserve">Y</text>
    </g>
    <g fill="rgb(255,204,0)" text-rendering="geometricPrecision" shape-rendering="geometricPrecision" transform="matrix(1,0,0,1,-203,-158)" stroke="rgb(255,204,0)">
      <circle r="25" clip-path="url(#clipPath2)" cx="706" cy="532" stroke="none"/>
    </g>
    <g text-rendering="geometricPrecision" stroke-miterlimit="1.45" shape-rendering="geometricPrecision" transform="matrix(1,0,0,1,-203,-158)" stroke-linecap="butt">
      <circle fill="none" r="25" clip-path="url(#clipPath2)" cx="706" cy="532"/>
      <text x="699.8345" font-size="18px" y="538.2314" clip-path="url(#clipPath2)" font-family="sans-serif" stroke="none" xml:space="preserve">Z</text>
      <text x="374.2832" font-size="20px" y="743.502" clip-path="url(#clipPath2)" font-family="sans-serif" stroke="none" xml:space="preserve">dx = d(X,B) - d(A,B) </text>
      <text x="374.5957" font-size="20px" y="766.7832" clip-path="url(#clipPath2)" font-family="sans-serif" stroke="none" xml:space="preserve">     + d(A,Y) - d(A,B) </text>
      <text x="374.3125" font-size="20px" y="790.0645" clip-path="url(#clipPath2)" font-family="sans-serif" stroke="none" xml:space="preserve">     + d(Y,C) - d(B,C) </text>
      <text x="374.5762" font-size="20px" y="813.3457" clip-path="url(#clipPath2)" font-family="sans-serif" stroke="none" xml:space="preserve">     + d(B,Z) - d(Y,Z) </text>
    </g>
    <g fill="rgb(255,204,0)" text-rendering="geometricPrecision" shape-rendering="geometricPrecision" transform="matrix(1,0,0,1,-203,-158)" stroke="rgb(255,204,0)">
      <circle r="25" clip-path="url(#clipPath2)" cx="1258" cy="307" stroke="none"/>
    </g>
    <g text-rendering="geometricPrecision" stroke-miterlimit="1.45" shape-rendering="geometricPrecision" transform="matrix(1,0,0,1,-203,-158)" stroke-linecap="butt">
      <circle fill="none" r="25" clip-path="url(#clipPath2)" cx="1258" cy="307"/>
      <text x="1251.8433" font-size="18px" y="313.2314" clip-path="url(#clipPath2)" font-family="sans-serif" stroke="none" xml:space="preserve">A</text>
    </g>
    <g fill="rgb(255,204,0)" text-rendering="geometricPrecision" shape-rendering="geometricPrecision" transform="matrix(1,0,0,1,-203,-158)" stroke="rgb(255,204,0)">
      <circle r="25" clip-path="url(#clipPath2)" cx="1258" cy="406.75" stroke="none"/>
    </g>
    <g text-rendering="geometricPrecision" stroke-miterlimit="1.45" shape-rendering="geometricPrecision" transform="matrix(1,0,0,1,-203,-158)" stroke-linecap="butt">
      <circle fill="none" r="25" clip-path="url(#clipPath2)" cx="1258" cy="406.75"/>
      <text x="1251.8257" font-size="18px" y="412.9814" clip-path="url(#clipPath2)" font-family="sans-serif" stroke="none" xml:space="preserve">B</text>
    </g>
    <g fill="rgb(255,204,0)" text-rendering="geometricPrecision" shape-rendering="geometricPrecision" transform="matrix(1,0,0,1,-203,-158)" stroke="rgb(255,204,0)">
      <circle r="25" clip-path="url(#clipPath2)" cx="1258" cy="506.5" stroke="none"/>
    </g>
    <g text-rendering="geometricPrecision" stroke-miterlimit="1.45" shape-rendering="geometricPrecision" transform="matrix(1,0,0,1,-203,-158)" stroke-linecap="butt">
      <circle fill="none" r="25" clip-path="url(#clipPath2)" cx="1258" cy="506.5"/>
      <text x="1252.5024" font-size="18px" y="512.7314" clip-path="url(#clipPath2)" font-family="sans-serif" stroke="none" xml:space="preserve">Y</text>
    </g>
    <g fill="rgb(255,204,0)" text-rendering="geometricPrecision" shape-rendering="geometricPrecision" transform="matrix(1,0,0,1,-203,-158)" stroke="rgb(255,204,0)">
      <circle r="25" clip-path="url(#clipPath2)" cx="1258" cy="606.25" stroke="none"/>
    </g>
    <g text-rendering="geometricPrecision" stroke-miterlimit="1.45" shape-rendering="geometricPrecision" transform="matrix(1,0,0,1,-203,-158)" stroke-linecap="butt">
      <circle fill="none" r="25" clip-path="url(#clipPath2)" cx="1258" cy="606.25"/>
      <text x="1251.8345" font-size="18px" y="612.4814" clip-path="url(#clipPath2)" font-family="sans-serif" stroke="none" xml:space="preserve">Z</text>
      <text x="1069.0449" font-size="20px" y="755.7832" clip-path="url(#clipPath2)" font-family="sans-serif" stroke="none" xml:space="preserve">dx = d(A,Y) - d(A,B) </text>
      <text x="1068.5762" font-size="20px" y="779.0645" clip-path="url(#clipPath2)" font-family="sans-serif" stroke="none" xml:space="preserve">     + d(B,Z) - d(Y,Z) </text>
      <path fill="none" d="M243 357 L243 407" stroke-width="3" clip-path="url(#clipPath2)"/>
      <path fill="none" d="M243 457 L243 507" stroke-width="3" clip-path="url(#clipPath2)"/>
      <path fill="none" stroke-dasharray="12,4" d="M243 307 L243 281.95 L243.5625 271.7406 L245.25 261.5875 L248.0625 251.4906 L252 241.45 L257.0625 231.4656 L263.25 221.5375 L270.5625 211.6656 L279 201.85 L287 193.15 L295.9859 184.5648 L304.9438 178.3844 L309.4121 176.1959 L313.8734 174.6086 L318.3277 173.6225 L322.775 173.2375 L327.2152 173.4537 L331.6484 174.2711 L336.0746 175.6897 L340.4937 177.7094 L344.9059 180.3303 L349.3109 183.5524 L358.1 191.8 L365.9 200.2 L374.1266 209.7203 L381.2563 219.3813 L387.2891 229.1828 L392.225 239.125 L396.0641 249.2078 L398.8062 259.4312 L400.4516 269.7953 L401 280.3 L401 307" stroke-width="2" clip-path="url(#clipPath2)"/>
      <path fill="none" d="M401 357 L401 407" stroke-width="3" clip-path="url(#clipPath2)"/>
      <path fill="none" d="M401 457 L401 507" stroke-width="3" clip-path="url(#clipPath2)"/>
      <path fill="none" stroke-dasharray="12,4" d="M401 557 L401 579.3 L400.4375 589.0523 L398.75 598.9594 L395.9375 609.0211 L392 619.2375 L386.9375 629.6086 L380.75 640.1344 L373.4375 650.8149 L365 661.65 L357 671.35 L348.0141 680.9125 L343.5316 684.6812 L339.0562 687.775 L334.5879 690.1937 L330.1266 691.9375 L325.6723 693.0062 L321.225 693.4 L316.7848 693.1188 L312.3516 692.1625 L307.9254 690.5312 L303.5063 688.225 L299.0941 685.2438 L294.6891 681.5875 L285.9 672.25 L278.1 662.75 L269.8734 652.1117 L262.7437 641.5719 L256.7109 631.1305 L251.775 620.7875 L247.9359 610.543 L245.1938 600.3969 L243.5484 590.3492 L243 580.4 L243 557" stroke-width="2" clip-path="url(#clipPath2)"/>
      <path fill="none" d="M993 332 L993 381.75" stroke-width="3" clip-path="url(#clipPath2)"/>
      <path fill="none" d="M993 431.75 L993 481.5" stroke-width="3" clip-path="url(#clipPath2)"/>
      <path fill="none" d="M993 531.5 L993 581.25" stroke-width="3" clip-path="url(#clipPath2)"/>
      <path fill="none" stroke-dasharray="12,4" d="M993 282 L993 268.5687 L993.8367 261.1991 L996.3469 254.8121 L1000.5305 249.4077 L1006.3875 244.9859 L1013.918 241.5468 L1023.1219 239.0902 L1033.9993 237.6163 L1046.55 237.125 L1058.45 237.125 L1071.0007 237.568 L1081.8781 238.8969 L1091.082 241.1117 L1098.6125 244.2125 L1104.4695 248.1992 L1108.6531 253.0719 L1111.1633 258.8304 L1112 265.475 L1112 271.775 L1112.9 440.975 L1113.1 472.275 L1114 636.525 L1114 641.725 L1113.55 647.2867 L1112.2 652.2719 L1109.95 656.6805 L1106.8 660.5125 L1102.75 663.7679 L1097.7999 666.4469 L1091.95 668.5493 L1085.2 670.075 L1078.8 671.175 L1064.5969 673.0875 L1050.7875 673.875 L1037.3718 673.5375 L1024.35 672.075 L1018.65 671.175 L1012.6383 669.7978 L1007.4282 667.691 L1003.0195 664.8548 L999.4125 661.2891 L996.6071 656.9938 L994.6031 651.9692 L993.4008 646.215 L993 639.7313 L993 631.25" stroke-width="2" clip-path="url(#clipPath2)"/>
      <path fill="none" stroke-dasharray="12,4" d="M548 307 L548 281.95 L548.5625 271.7406 L550.25 261.5875 L553.0625 251.4906 L557 241.45 L562.0625 231.4656 L568.25 221.5375 L575.5625 211.6656 L584 201.85 L592 193.15 L600.986 184.5648 L609.9437 178.3844 L614.4121 176.1959 L618.8734 174.6086 L623.3278 173.6225 L627.775 173.2375 L632.2152 173.4537 L636.6484 174.2711 L641.0746 175.6897 L645.4937 177.7094 L649.9058 180.3303 L654.3109 183.5524 L663.1 191.8 L670.9 200.2 L679.1266 209.7203 L686.2563 219.3813 L692.2891 229.1828 L697.225 239.125 L701.0641 249.2078 L703.8063 259.4312 L705.4515 269.7953 L706 280.3 L706 307" stroke-width="2" clip-path="url(#clipPath2)"/>
      <path fill="none" d="M684.8755 345.3699 L569.1245 418.6301" stroke-width="3" clip-path="url(#clipPath2)"/>
      <path fill="none" d="M569.1245 345.3699 L684.8755 418.6301" stroke-width="3" clip-path="url(#clipPath2)"/>
      <path fill="none" d="M684.8755 445.3699 L569.1245 518.6301" stroke-width="3" clip-path="url(#clipPath2)"/>
      <path fill="none" d="M568.4384 446.3969 L681.6625 526.1522" stroke-width="3" clip-path="url(#clipPath2)"/>
      <path fill="none" stroke-dasharray="12,4" d="M706 557 L706 579.3 L705.4375 589.0523 L703.75 598.9594 L700.9375 609.0211 L697 619.2375 L691.9375 629.6086 L685.75 640.1344 L678.4375 650.8149 L670 661.65 L662 671.35 L653.014 680.9125 L648.5316 684.6812 L644.0563 687.775 L639.5879 690.1937 L635.1266 691.9375 L630.6722 693.0062 L626.225 693.4 L621.7848 693.1188 L617.3516 692.1625 L612.9254 690.5312 L608.5063 688.225 L604.0942 685.2438 L599.6891 681.5875 L590.9 672.25 L583.1 662.75 L574.8734 652.1117 L567.7437 641.5719 L561.7109 631.1305 L556.775 620.7875 L552.9359 610.543 L550.1937 600.3969 L548.5485 590.3492 L548 580.4 L548 557" stroke-width="2" clip-path="url(#clipPath2)"/>
      <path fill="none" d="M1258 431.75 L1258 481.5" stroke-width="3" clip-path="url(#clipPath2)"/>
      <path fill="none" d="M1274.6956 325.6301 L1279.8203 331.9375 L1288.3926 344.4062 L1295.4062 356.875 L1300.8613 369.3438 L1304.7578 381.8125 L1307.0957 394.2812 L1307.875 406.75 L1307.0957 419.2188 L1304.7578 431.6875 L1300.8613 444.1562 L1295.4062 456.625 L1288.3926 469.0938 L1279.8203 481.5625 L1274.6956 487.8699" stroke-width="3" clip-path="url(#clipPath2)"/>
      <path fill="none" stroke-dasharray="12,4" d="M1258 282 L1258 268.5687 L1258.8367 261.1991 L1261.3469 254.8121 L1265.5305 249.4077 L1271.3875 244.9859 L1278.918 241.5468 L1288.1219 239.0902 L1298.9993 237.6163 L1311.55 237.125 L1323.45 237.125 L1336.0007 237.568 L1346.8781 238.8969 L1356.082 241.1117 L1363.6125 244.2125 L1369.4695 248.1992 L1373.6531 253.0719 L1376.1633 258.8304 L1377 265.475 L1377 271.775 L1377.9 440.975 L1378.1 472.275 L1379 636.525 L1379 641.725 L1378.55 647.2867 L1377.2 652.2719 L1374.95 656.6805 L1371.8 660.5125 L1367.75 663.7679 L1362.7999 666.4469 L1356.95 668.5493 L1350.2 670.075 L1343.8 671.175 L1329.5969 673.0875 L1315.7875 673.875 L1302.3718 673.5375 L1289.35 672.075 L1283.65 671.175 L1277.6383 669.7978 L1272.4281 667.691 L1268.0195 664.8548 L1264.4125 661.2891 L1261.6071 656.9938 L1259.6031 651.9692 L1258.4008 646.215 L1258 639.7313 L1258 631.25" stroke-width="2" clip-path="url(#clipPath2)"/>
      <path fill="none" d="M1241.2606 425.3314 L1236.0703 431.6875 L1227.4551 444.1562 L1220.4062 456.625 L1214.9238 469.0938 L1211.0078 481.5625 L1208.6582 494.0312 L1207.875 506.5 L1208.6582 518.9688 L1211.0078 531.4375 L1214.9238 543.9062 L1220.4062 556.375 L1227.4551 568.8438 L1236.0703 581.3125 L1241.2606 587.6686" stroke-width="3" clip-path="url(#clipPath2)"/>
    </g>
  </g>
</svg>
